# xmcd
#
# Track frame offsets: 
#        150
#        29793
#        45177
#        54665
#        85440
#        104767
#        124310
#        144179
#        169937
#        209260
#        239726
#        262688
#        288955
#        311839
#        337647
#
# Disc length: 4799 seconds
#
# Revision: 0
# Processed by: cddbd v1.5.1PL2 Copyright (c) Steve Scherf et al.
# Submitted via: ExactAudioCopy v0.90b4
#
DISCID=db12bd0f
DTITLE=Hot Tuna - Double Dose
DYEAR=1977
DGENRE=Blues
TTITLE0=Winin' Boy Blues
TTITLE1=Keep Your Lamps Trimmed And Burning
TTITLE2=Embryonic Journey
TTITLE3=Killing Time In The Crystal City
TTITLE4=I Wish You Would
TTITLE5=Genesis
TTITLE6=Extrication Love Song
TTITLE7=Taliking 'Bout You
TTITLE8=Funky #7
TTITLE9=Serpent Of Dreams
TTITLE10=Bowlegged Woman, Knock Kneed Man
TTITLE11=I See The Light
TTITLE12=Watch The North Wind Rise
TTITLE13=Sunrise Dance With The Devil
TTITLE14=I Can't Be Satisfied
EXTD=
EXTT0=
EXTT1=
EXTT2=
EXTT3=
EXTT4=
EXTT5=
EXTT6=
EXTT7=
EXTT8=
EXTT9=
EXTT10=
EXTT11=
EXTT12=
EXTT13=
EXTT14=
PLAYORDER=
